<svg width="44" height="44" viewBox="0 0 44 44" fill="none" xmlns="http://www.w3.org/2000/svg">
<path fill-rule="evenodd" clip-rule="evenodd" d="M10.6962 33.3037C10.1234 32.7308 10.1234 31.8021 10.6962 31.2295L30.1924 11.7331H17.5999C16.7899 11.7331 16.1333 11.0765 16.1333 10.2665C16.1333 9.45646 16.7899 8.7998 17.5999 8.7998H33.7333C34.1222 8.7998 34.4954 8.95433 34.7705 9.22939C35.0454 9.50445 35.1999 9.87748 35.1999 10.2665V26.3998C35.1999 27.2098 34.5432 27.8665 33.7333 27.8665C32.9234 27.8665 32.2666 27.2098 32.2666 26.3998V13.8073L12.7704 33.3037C12.1976 33.8763 11.269 33.8763 10.6962 33.3037Z" fill="black"/>
</svg>
